<?xml version="1.0" encoding="UTF-8"?>
<svg version="1.1" xmlns="http://www.w3.org/2000/svg" width="96" height="96">
<path d="M0 0 C1.76923828 0.01353516 1.76923828 0.01353516 3.57421875 0.02734375 C4.47785156 0.03894531 5.38148437 0.05054688 6.3125 0.0625 C-0.52663034 13.16361889 -8.26994133 25.91564318 -16.6875 38.0625 C-20.66420724 34.46452679 -23.46358905 30.23043595 -26.4375 25.8125 C-26.94410156 25.06742188 -27.45070313 24.32234375 -27.97265625 23.5546875 C-29.21484756 21.72655689 -30.45297582 19.895813 -31.6875 18.0625 C-27.40199535 9.01244637 -18.69676648 4.50374441 -9.6875 1.0625 C-6.26517028 -0.07827657 -3.60076783 -0.03565117 0 0 Z " fill="#FFCD3B" transform="translate(44.6875,4.9375)"/>
<path d="M0 0 C8.58 0 17.16 0 26 0 C27.83604617 5.50813852 28.38622284 9.08139505 28.375 14.6875 C28.37411377 15.48115967 28.37322754 16.27481934 28.37231445 17.0925293 C28.19641334 25.86883417 25.58154172 32.5828909 21 40 C17.96447768 37.39633079 16.53151027 34.3915231 14.78515625 30.828125 C14.48814316 30.2274823 14.19113007 29.6268396 13.88511658 29.00799561 C12.93849785 27.09143086 12.00009349 25.17099381 11.0625 23.25 C9.82725494 20.73287275 8.58827838 18.21760578 7.34765625 15.703125 C6.47971436 13.94258789 6.47971436 13.94258789 5.59423828 12.14648438 C4.31582304 9.62332732 2.99205242 7.1708129 1.55859375 4.734375 C0 2 0 2 0 0 Z " fill="#FFCC3B" transform="translate(63,33)"/>
<path d="M0 0 C14.19 0 28.38 0 43 0 C41.02948145 4.92629637 38.68442117 9.20182356 36 13.75 C35.54882812 14.52988281 35.09765625 15.30976562 34.6328125 16.11328125 C34.19710937 16.85449219 33.76140625 17.59570312 33.3125 18.359375 C32.91675781 19.03452148 32.52101562 19.70966797 32.11328125 20.40527344 C31 22 31 22 29 23 C17.42336703 20.13057815 7.92150282 13.71129223 1 4 C0.67 2.68 0.34 1.36 0 0 Z " fill="#FFCD3B" transform="translate(10,68)"/>
<path d="M0 0 C0.66 0 1.32 0 2 0 C3.90093252 3.57015268 5.76605285 7.1578316 7.625 10.75 C8.16640625 11.76578125 8.7078125 12.7815625 9.265625 13.828125 C10.01972656 15.29765625 10.01972656 15.29765625 10.7890625 16.796875 C11.26037598 17.69760742 11.73168945 18.59833984 12.21728516 19.52636719 C13 22 13 22 12.23339844 24.22973633 C7.52677346 30.98502883 -1.33209198 34.82930545 -9 37 C-13.04541149 37.36316762 -16.95412076 37.32280951 -21 37 C-19.47526564 32.82657863 -17.4148768 29.08248521 -15.15625 25.2734375 C-14.78649048 24.64394196 -14.41673096 24.01444641 -14.0357666 23.36587524 C-13.25739341 22.04211928 -12.47737433 20.71932987 -11.69580078 19.39746094 C-10.50079869 17.37635083 -9.31050497 15.3525294 -8.12109375 13.328125 C-7.36224986 12.03890313 -6.60314424 10.74983527 -5.84375 9.4609375 C-5.48849243 8.85776703 -5.13323486 8.25459656 -4.76721191 7.63314819 C-3.23479633 5.04242255 -1.67030773 2.5054616 0 0 Z " fill="#FFCC3B" transform="translate(67,54)"/>
<path d="M0 0 C12.00027308 3.34891342 21.71082336 8.32216294 28.9375 18.8125 C30 21 30 21 30 23 C15.81 23 1.62 23 -13 23 C-11.58524966 19.46312415 -10.35470825 16.73609821 -8.3984375 13.57421875 C-7.90859375 12.77822266 -7.41875 11.98222656 -6.9140625 11.16210938 C-6.40617187 10.34548828 -5.89828125 9.52886719 -5.375 8.6875 C-4.859375 7.85154297 -4.34375 7.01558594 -3.8125 6.15429688 C-2.54512996 4.10068801 -1.27421427 2.04936659 0 0 Z " fill="#FFCD3B" transform="translate(56,5)"/>
<path d="M0 0 C0.66 0 1.32 0 2 0 C3.60058594 1.93676758 3.60058594 1.93676758 5.484375 4.64453125 C6.17273437 5.63259766 6.86109375 6.62066406 7.5703125 7.63867188 C8.28960937 8.68603516 9.00890625 9.73339844 9.75 10.8125 C10.45382813 11.81732422 11.15765625 12.82214844 11.8828125 13.85742188 C24 31.36878485 24 31.36878485 24 36 C15.42 36 6.84 36 -2 36 C-3.88268187 30.35195439 -4.38416603 26.58538014 -4.375 20.8125 C-4.37693359 19.55699341 -4.37693359 19.55699341 -4.37890625 18.27612305 C-4.26558986 11.61427847 -3.0173419 5.99427298 0 0 Z " fill="#FFCD3B" transform="translate(9,27)"/>
</svg>
